<svg xmlns="http://www.w3.org/2000/svg" width="142" height="35" viewBox="0 0 142 35" fill="none">
    <path
        d="M21.0215 11.4375H21.0214C16.4823 11.4375 12.8027 15.1246 12.8027 19.6728C12.8027 24.221 16.4823 27.9081 21.0214 27.9081H21.0215C25.5605 27.9081 29.2401 24.221 29.2401 19.6728C29.2401 15.1246 25.5605 11.4375 21.0215 11.4375Z"
        fill="#7D45E4" />
    <path
        d="M8.43089 11.4402C9.93783 11.4784 11.3438 11.9235 12.544 12.6693C11.8741 13.306 11.297 14.0396 10.8351 14.8479C10.0576 14.4236 9.16623 14.1826 8.21865 14.1826C5.19263 14.1826 2.73955 16.6407 2.73955 19.6728C2.73955 22.7049 5.19263 25.163 8.21865 25.163C9.20758 25.163 10.1352 24.9004 10.9361 24.441C11.4145 25.2387 12.0065 25.9602 12.6898 26.5831C11.4029 27.4208 9.86765 27.9081 8.21865 27.9081L8.00663 27.9053C3.56559 27.7928 0 24.15 0 19.6728C0 15.1246 3.67963 11.4375 8.21865 11.4375L8.43089 11.4402Z"
        fill="#7D45E4" />
    <path
        d="M32.2754 27.9087V12.7535H35.814V15.1269H35.8996C36.2895 14.3072 36.8698 13.6542 37.6403 13.1681C38.4204 12.682 39.3811 12.439 40.5226 12.439C42.1873 12.439 43.4715 12.9441 44.3751 13.9545C45.2882 14.9648 45.7448 16.3469 45.7448 18.1007V27.9087H42.1919V18.8156C42.1919 17.7385 41.9398 16.9093 41.4358 16.3278C40.9317 15.7369 40.1753 15.4414 39.167 15.4414C38.4917 15.4414 37.902 15.5987 37.3977 15.9132C36.8936 16.2182 36.5037 16.6471 36.2279 17.2C35.9519 17.7433 35.814 18.3819 35.814 19.1158V27.9087H32.2754ZM52.0378 27.9087L46.6872 12.7535H50.4683L53.9783 24.6059H54.0639L57.574 12.7535H61.2696L55.9474 27.9087H52.0378ZM68.4329 28.2089C66.9204 28.2089 65.6173 27.8897 64.5233 27.251C63.4389 26.6124 62.6065 25.7069 62.0264 24.5345C61.4461 23.3622 61.1559 21.9753 61.1559 20.374V20.3597C61.1559 18.7679 61.4461 17.3811 62.0264 16.1992C62.6161 15.0077 63.4389 14.0832 64.4948 13.4255C65.5602 12.7678 66.8159 12.439 68.2617 12.439C69.6981 12.439 70.9393 12.7583 71.9858 13.3969C73.0417 14.026 73.8501 14.9124 74.4115 16.0562C74.9822 17.2 75.2676 18.5344 75.2676 20.0595V21.2033H62.9111V18.8299H73.5695L71.8573 21.046V19.6734C71.8573 18.6822 71.705 17.8577 71.4007 17.2C71.0964 16.5423 70.6777 16.0514 70.1451 15.7274C69.6125 15.3938 68.9988 15.2269 68.3046 15.2269C67.6005 15.2269 66.9727 15.3985 66.4211 15.7417C65.8789 16.0752 65.4509 16.5757 65.137 17.2429C64.8324 17.9101 64.6804 18.7203 64.6804 19.6734V21.046C64.6804 21.9706 64.8324 22.7617 65.137 23.4193C65.4509 24.0674 65.8931 24.5679 66.4638 24.9207C67.0346 25.2638 67.7147 25.4354 68.5043 25.4354C69.094 25.4354 69.6125 25.3448 70.0595 25.1636C70.5065 24.9731 70.8729 24.7299 71.1583 24.4343C71.453 24.139 71.6576 23.8197 71.7717 23.4765L71.8002 23.3766H75.1105L75.082 23.5337C74.9583 24.1152 74.73 24.6871 74.3971 25.2494C74.0642 25.8023 73.617 26.3026 73.0559 26.7508C72.4947 27.1987 71.8288 27.556 71.0583 27.8229C70.2878 28.0803 69.4127 28.2089 68.4329 28.2089ZM76.9517 27.9087V12.7535H80.4903V15.3699H80.5759C80.8042 14.4549 81.2181 13.74 81.8174 13.2253C82.426 12.7011 83.168 12.439 84.0433 12.439C84.262 12.439 84.4713 12.4533 84.6711 12.4818C84.8708 12.5104 85.0373 12.5438 85.1704 12.5819V15.7988C85.0277 15.7417 84.8231 15.694 84.5569 15.6559C84.3001 15.6177 84.0193 15.5987 83.715 15.5987C83.0491 15.5987 82.4737 15.7369 81.9886 16.0133C81.5035 16.2802 81.1325 16.6757 80.8757 17.2C80.6188 17.7242 80.4903 18.3628 80.4903 19.1158V27.9087H76.9517ZM92.3195 28.2089C90.9972 28.2089 89.8653 28.0135 88.9236 27.6228C87.9914 27.2321 87.2588 26.684 86.7262 25.9785C86.203 25.2638 85.8843 24.4392 85.7701 23.5051L85.756 23.3766H89.2516L89.2802 23.5051C89.4135 24.1628 89.7274 24.6727 90.2219 25.0351C90.7262 25.3972 91.43 25.5781 92.3336 25.5781C92.9139 25.5781 93.4087 25.5068 93.8175 25.3638C94.2266 25.2208 94.5405 25.011 94.7593 24.7347C94.9875 24.4584 95.1017 24.1342 95.1017 23.7625V23.7481C95.1017 23.3002 94.9496 22.938 94.6451 22.6616C94.3408 22.3756 93.7938 22.1421 93.0043 21.961L90.4931 21.4034C89.5324 21.1842 88.7286 20.884 88.0816 20.5027C87.4348 20.1214 86.9497 19.6496 86.6262 19.0872C86.3029 18.5153 86.1411 17.8529 86.1411 17.0999V17.0856C86.1411 16.161 86.3934 15.3509 86.8974 14.6551C87.4015 13.9592 88.1101 13.4159 89.0233 13.0251C89.9365 12.6344 90.9972 12.439 92.2053 12.439C93.4609 12.439 94.5358 12.6487 95.43 13.068C96.3242 13.4874 97.0137 14.0498 97.4988 14.7551C97.9935 15.4605 98.2599 16.2516 98.2978 17.1285L98.3122 17.2858H95.0019L94.9875 17.1714C94.9115 16.5614 94.6357 16.061 94.16 15.6702C93.6844 15.2698 93.0329 15.0697 92.2053 15.0697C91.6821 15.0697 91.2255 15.1459 90.8355 15.2984C90.455 15.4509 90.1602 15.6654 89.9509 15.9418C89.7511 16.2182 89.6511 16.5423 89.6511 16.914V16.9283C89.6511 17.2143 89.7226 17.4716 89.8653 17.7004C90.008 17.9292 90.2363 18.1293 90.5502 18.3009C90.8641 18.4629 91.2825 18.6059 91.8058 18.7298L94.317 19.2874C95.8866 19.6401 97.0043 20.1452 97.67 20.8029C98.336 21.4511 98.6688 22.3232 98.6688 23.4193V23.4338C98.6688 24.3868 98.3978 25.2256 97.8556 25.9501C97.3134 26.6647 96.5619 27.2225 95.6012 27.6228C94.6499 28.0135 93.5561 28.2089 92.3195 28.2089ZM107.002 28.2089C105.49 28.2089 104.187 27.8897 103.093 27.251C102.008 26.6124 101.176 25.7069 100.596 24.5345C100.016 23.3622 99.7254 21.9753 99.7254 20.374V20.3597C99.7254 18.7679 100.016 17.3811 100.596 16.1992C101.186 15.0077 102.008 14.0832 103.064 13.4255C104.13 12.7678 105.385 12.439 106.831 12.439C108.268 12.439 109.509 12.7583 110.555 13.3969C111.611 14.026 112.42 14.9124 112.981 16.0562C113.552 17.2 113.837 18.5344 113.837 20.0595V21.2033H101.481V18.8299H112.139L110.427 21.046V19.6734C110.427 18.6822 110.274 17.8577 109.97 17.2C109.666 16.5423 109.247 16.0514 108.715 15.7274C108.182 15.3938 107.568 15.2269 106.874 15.2269C106.17 15.2269 105.542 15.3985 104.991 15.7417C104.448 16.0752 104.02 16.5757 103.706 17.2429C103.402 17.9101 103.25 18.7203 103.25 19.6734V21.046C103.25 21.9706 103.402 22.7617 103.706 23.4193C104.02 24.0674 104.463 24.5679 105.033 24.9207C105.604 25.2638 106.284 25.4354 107.074 25.4354C107.663 25.4354 108.182 25.3448 108.629 25.1636C109.076 24.9731 109.442 24.7299 109.728 24.4343C110.022 24.139 110.227 23.8197 110.341 23.4765L110.37 23.3766H113.68L113.651 23.5337C113.528 24.1152 113.299 24.6871 112.967 25.2494C112.634 25.8023 112.186 26.3026 111.625 26.7508C111.064 27.1987 110.398 27.556 109.628 27.8229C108.857 28.0803 107.982 28.2089 107.002 28.2089ZM117.448 28.1375C116.867 28.1375 116.377 27.9373 115.978 27.537C115.578 27.1367 115.378 26.6506 115.378 26.0787C115.378 25.4972 115.578 25.0062 115.978 24.6059C116.377 24.2056 116.867 24.0057 117.448 24.0057C118.018 24.0057 118.503 24.2056 118.903 24.6059C119.302 25.0062 119.502 25.4972 119.502 26.0787C119.502 26.6506 119.302 27.1367 118.903 27.537C118.503 27.9373 118.018 28.1375 117.448 28.1375ZM126.166 28.1661C125.167 28.1661 124.282 27.9755 123.512 27.5942C122.751 27.2035 122.157 26.6647 121.729 25.9785C121.31 25.2828 121.101 24.487 121.101 23.5909V23.5623C121.101 22.6568 121.324 21.8848 121.771 21.2461C122.228 20.598 122.884 20.0881 123.74 19.7163C124.596 19.3351 125.633 19.1063 126.851 19.0301L132.63 18.6726V21.0317L127.35 21.3605C126.475 21.4177 125.805 21.6274 125.338 21.9896C124.872 22.3518 124.639 22.8332 124.639 23.4338V23.4479C124.639 24.0674 124.872 24.5583 125.338 24.9207C125.814 25.2732 126.442 25.4496 127.222 25.4496C127.907 25.4496 128.516 25.3114 129.048 25.0351C129.59 24.7585 130.018 24.382 130.332 23.9055C130.646 23.429 130.803 22.8902 130.803 22.2899V17.7433C130.803 16.9808 130.561 16.3803 130.075 15.9418C129.6 15.4938 128.91 15.2698 128.007 15.2698C127.169 15.2698 126.499 15.4509 125.995 15.8131C125.491 16.1658 125.177 16.6233 125.053 17.1857L125.024 17.3144H121.743L121.757 17.1428C121.833 16.2468 122.133 15.4462 122.656 14.7408C123.179 14.026 123.902 13.4636 124.825 13.0537C125.757 12.6439 126.86 12.439 128.135 12.439C129.4 12.439 130.494 12.6487 131.417 13.068C132.349 13.4874 133.067 14.0736 133.571 14.8266C134.085 15.5796 134.342 16.4661 134.342 17.4859V27.9087H130.803V25.5781H130.718C130.432 26.1025 130.061 26.56 129.605 26.9507C129.148 27.3416 128.625 27.6418 128.035 27.8515C127.455 28.0613 126.832 28.1661 126.166 28.1661ZM136.739 27.9087V12.7535H140.292V27.9087H136.739ZM138.509 10.5803C137.957 10.5803 137.491 10.3897 137.11 10.0084C136.73 9.62713 136.54 9.16961 136.54 8.63585C136.54 8.09255 136.73 7.63503 137.11 7.2633C137.491 6.88203 137.957 6.69141 138.509 6.69141C139.07 6.69141 139.541 6.88203 139.921 7.2633C140.302 7.63503 140.492 8.09255 140.492 8.63585C140.492 9.16961 140.302 9.62713 139.921 10.0084C139.541 10.3897 139.07 10.5803 138.509 10.5803Z"
        fill="url(#paint0_linear_2075_248)" />
    <defs>
        <linearGradient id="paint0_linear_2075_248" x1="30.82" y1="17.5002" x2="142" y2="17.5002"
            gradientUnits="userSpaceOnUse">
            <stop stop-color="#7D45E4" />
            <stop offset="1" stop-color="#DD7BF8" />
        </linearGradient>
    </defs>
</svg>